<?xml version="1.0" standalone="no"?><!DOCTYPE svg PUBLIC "-//W3C//DTD SVG 1.1//EN" "http://www.w3.org/Graphics/SVG/1.1/DTD/svg11.dtd"><svg t="1632921506885" class="icon" viewBox="0 0 1024 1024" version="1.1" xmlns="http://www.w3.org/2000/svg" p-id="2694" xmlns:xlink="http://www.w3.org/1999/xlink" width="16" height="16"><defs><style type="text/css"></style></defs><path d="M686.887805 534.994417l57.448157-5.129666c17.531988 38.816517 56.581951 65.829683 101.941095 65.829683 61.746428 0 111.80111-50.054682 111.80111-111.80111 0-61.745405-50.054682-111.800086-111.80111-111.800086-58.561121 0-106.599773 45.027405-111.398723 102.348601l-53.024974 4.734445c-12.479114-50.109972-45.66119-92.030909-89.948325-116.138288l23.146975-76.42792c0.979858 0.025597 1.96074 0.045051 2.941623 0.045051 21.08487 0 42.406258-5.955941 61.337898-18.410482 51.58539-33.933607 65.895212-103.259859 31.961604-154.846274-21.48009-32.652727-57.140992-50.370039-93.507351-50.370038-21.083847 0-42.406258 5.955941-61.338922 18.409458-51.584367 33.933607-65.894188 103.259859-31.961604 154.846273 9.731006 14.793095 22.379062 26.508391 36.67762 34.912442l-22.100565 72.970259a183.407554 183.407554 0 0 0-34.273537-3.22831c-55.136225 0-104.560193 24.454477-138.018718 63.107172l-84.738798-49.257075a111.773465 111.773465 0 0 0 4.692467-32.124402c0-61.746428-50.054682-111.80111-111.800086-111.801111-61.745405 0-111.800086 50.054682-111.800087 111.801111 0 61.745405 50.054682 111.800086 111.800087 111.800086 30.367415 0 57.901739-12.113587 78.049754-31.765018l84.044603 48.853664c-9.458653 22.053466-14.704017 46.343098-14.704017 71.859344 0 38.261571 11.78492 73.765818 31.91041 103.099109L274.025501 715.892428c-14.592414-6.981874-30.934647-10.89414-48.190187-10.89414-61.745405 0-111.800086 50.054682-111.800086 111.800087 0 61.746428 50.054682 111.80111 111.800086 111.80111 61.745405 0 111.800086-50.054682 111.800087-111.80111 0-24.16267-7.666853-46.535588-20.698866-64.818085l75.837138-84.520709c30.920313 24.078711 69.790072 38.426416 112.015103 38.426416 32.471499 0 62.955637-8.492105 89.36983-23.360968l58.262147 88.993041c-17.444958 19.720031-28.040124 45.641736-28.040124 74.041243 0 61.745405 50.054682 111.800086 111.801111 111.800087 61.745405 0 111.800086-50.054682 111.800086-111.800087 0-61.746428-50.054682-111.80111-111.800086-111.80111-13.08935 0-25.650375 2.256643-37.322668 6.390068l-60.508551-92.42408c27.884493-29.94455 45.814773-69.271986 48.537284-112.729774z m-99.641449-406.737422c9.138177-6.010207 19.69853-9.187323 30.540452-9.187323 18.883517 0 36.336666 9.393124 46.687123 25.128194 8.184939 12.443278 11.035436 27.328523 8.024189 41.914793-3.011247 14.58627-11.521782 27.126818-23.96506 35.311757-9.137153 6.011231-19.696482 9.188347-30.539427 9.188347-18.883517 0-36.336666-9.393124-46.687123-25.128193-16.89718-25.686211-9.746364-60.331419 15.939846-77.227575zM174.923641 378.421873c-30.745229 0-55.758747-25.013518-55.758747-55.758747 0-30.746252 25.013518-55.759771 55.758747-55.759771s55.758747 25.013518 55.758747 55.759771c0 30.745229-25.013518 55.758747-55.758747 55.758747z m671.353416 49.712704c30.746252 0 55.759771 25.013518 55.759771 55.758747 0 30.746252-25.013518 55.759771-55.759771 55.759771-30.745229 0-55.758747-25.013518-55.758747-55.759771 0-30.745229 25.013518-55.758747 55.758747-55.758747zM225.835314 872.558145c-30.745229 0-55.758747-25.013518-55.758747-55.75977 0-30.745229 25.013518-55.758747 55.758747-55.758747s55.758747 25.013518 55.758747 55.758747c0 30.746252-25.013518 55.759771-55.758747 55.75977z m152.52103-349.145919c0-69.715328 56.718128-126.433455 126.433456-126.433456s126.432432 56.718128 126.432431 126.433456-56.717104 126.432432-126.432431 126.432431-126.433455-56.717104-126.433456-126.432431z m413.58619 322.148111c0 30.745229-25.013518 55.758747-55.758747 55.758747-30.746252 0-55.759771-25.013518-55.75977-55.758747 0-30.746252 25.013518-55.759771 55.75977-55.759771 30.745229 0 55.758747 25.013518 55.758747 55.759771z" fill="#ffffff" p-id="2695"></path></svg>