<?xml version="1.0" standalone="no"?><!DOCTYPE svg PUBLIC "-//W3C//DTD SVG 1.1//EN" "http://www.w3.org/Graphics/SVG/1.1/DTD/svg11.dtd">
<svg t="1638954369852" class="icon" viewBox="0 0 1024 1024" version="1.1" xmlns="http://www.w3.org/2000/svg" p-id="6455"
     width="32" height="32"><defs><style type="text/css"></style></defs><path d="M920.722599 221.726526L558.794716 12.612638c-29.246698-16.816851-64.342735-16.816851-93.589432 0L103.277401 221.726526c-29.246698 16.816851-46.794716 47.525884-46.794716 81.159586v418.227776c0 33.633702 17.548019 64.342735 46.794716 81.159586l362.65905 209.113888c29.246698 16.816851 64.342735 16.816851 93.589433 0l362.65905-209.113888c29.246698-16.816851 46.794716-47.525884 46.794716-81.159586V302.886112c-1.462335-33.633702-19.010353-64.342735-48.257051-81.159586z m-135.997144 182.79186l-248.596929 140.384149v282.961799c-0.731167 14.623349-3.655837 25.59086-16.085684 28.51553-5.84934 3.655837-11.698679 5.118172-18.279186 5.118172h-2.92467a35.096037 35.096037 0 0 1-35.096037-35.096037V536.859693c0-2.193502 0-4.387005 0.731167-6.580507L242.199215 404.518386c-16.816851-9.505177-26.322028-30.709032-16.816852-47.525883 9.505177-16.816851 29.246698-22.666191 45.332382-13.161014l242.016422 140.384148 242.747591-140.384148c16.816851-9.505177 35.096037-3.655837 44.601213 13.161014 9.505177 16.085684 1.462335 38.020707-15.354516 47.525883z" p-id="6456"></path></svg>