<?xml version="1.0" standalone="no"?><!DOCTYPE svg PUBLIC "-//W3C//DTD SVG 1.1//EN"
        "http://www.w3.org/Graphics/SVG/1.1/DTD/svg11.dtd">
<svg t="1645410146563" class="icon" viewBox="0 0 1055 1024" version="1.1" xmlns="http://www.w3.org/2000/svg" p-id="3510"
     width="16.484375" height="16">
    <defs>
        <style type="text/css"></style>
    </defs>
    <path d="M1052.046129 716.968699c0-1.897858 0-3.584843-1.686986-5.271829a38.589786 38.589786 0 0 0-2.741351-5.060956 24.039539 24.039539 0 0 0-2.108731-4.006589 63.261944 63.261944 0 0 0-6.537068-8.224053l-193.792421-193.792422a52.718287 52.718287 0 0 0-74.649094 74.649094l103.749588 103.749588H52.718287a52.718287 52.718287 0 0 0 0 105.436573h948.929159a42.174629 42.174629 0 0 0 10.332785 0 35.004942 35.004942 0 0 0 4.428336-1.265238 54.405272 54.405272 0 0 0 5.482702-1.686986 53.350906 53.350906 0 0 0 4.850082-2.530477l4.217463-2.319605a53.140033 53.140033 0 0 0 14.550247-14.550247 26.14827 26.14827 0 0 0 2.108731-4.217463 36.059308 36.059308 0 0 0 2.741351-4.850082c0-1.686985 0-3.584843 1.686986-5.482702a27.202636 27.202636 0 0 0 1.265238-4.428336 56.724876 56.724876 0 0 0 0-21.087315 35.004942 35.004942 0 0 0-1.265238-5.060955zM2.319605 307.242175c0 1.686985 1.054366 3.584843 1.686985 5.271828s1.686985 3.37397 2.741351 5.060956a36.691928 36.691928 0 0 0 2.108731 4.00659 49.133443 49.133443 0 0 0 6.537068 8.013179l193.792421 193.792422a52.718287 52.718287 0 1 0 74.649094-74.438221l-103.749588-103.960461h822.405272a52.718287 52.718287 0 0 0 0-105.436573H52.718287a57.357496 57.357496 0 0 0-10.332785 1.054365l-4.428336 1.476112a27.202636 27.202636 0 0 0-5.482701 1.686985 53.350906 53.350906 0 0 0-4.850083 2.530478l-4.217463 2.108732a53.772652 53.772652 0 0 0-14.550247 14.76112 36.691928 36.691928 0 0 0-2.108731 4.00659 38.589786 38.589786 0 0 0-2.741351 5.060955c0 1.686985 0 3.584843-1.686985 5.271829a35.004942 35.004942 0 0 0-1.265239 4.428336 56.724876 56.724876 0 0 0 0 21.087315 37.957166 37.957166 0 0 0 1.265239 4.217463z"
          fill="#111111" p-id="3511"></path>
    <path d="M933.53542 841.805601a53.140033 53.140033 0 0 0-74.649094 0l-91.940692 92.151565a52.718287 52.718287 0 0 0 74.438221 74.438221l92.151565-91.940692a53.140033 53.140033 0 0 0 0-74.649094zM212.981878 15.39374L120.830313 107.545305a52.718287 52.718287 0 0 0 74.649094 74.438221l91.940692-91.940692A52.718287 52.718287 0 0 0 212.981878 15.39374z"
          fill="#00C569" p-id="3512"></path>
</svg>