<?xml version="1.0" standalone="no"?><!DOCTYPE svg PUBLIC "-//W3C//DTD SVG 1.1//EN"
        "http://www.w3.org/Graphics/SVG/1.1/DTD/svg11.dtd">
<svg t="1667446028704" class="icon" viewBox="0 0 1406 1024" version="1.1" xmlns="http://www.w3.org/2000/svg" p-id="3455"
     width="21.96875" height="16">
    <path d="M1041.358666 635.849029V366.075909h-0.235292a22.149086 22.149086 0 0 0-6.498263-15.627029l0.16391-0.163911-224.782293-224.784937-0.166554 0.163911a22.043337 22.043337 0 0 0-14.273445-6.432171c0.031725-0.161267 0.0423-0.327821 0.079312-0.486444h-44.689443v0.45472h-316.849842c-34.468821 0-62.510759 28.039294-62.51076 62.502828v653.765519c0 34.468821 28.041938 62.510759 62.51076 62.51076h544.738506c34.468821 0 62.510759-28.039294 62.51076-62.51076v-155.181076h0.047587v-44.43829h-0.044943z m-63.650203-279.798106h-137.362404c-25.279251 0-45.762793-20.48883-45.762793-45.768081V172.909863l183.125197 183.14106z m20.256182 45.442903v443.238164a8.948992 8.948992 0 0 1-8.938417 8.930486h-564.169849a8.943705 8.943705 0 0 1-8.930486-8.930486V172.455143a8.935774 8.935774 0 0 1 8.930486-8.927842h319.215972v-0.039656h6.884247v176.214513c0 33.456277 27.116636 60.572913 60.572913 60.572913h186.450997v1.216111h-0.015863v0.002644z"
          p-id="3456" fill="#333333"></path>
    <path d="M602.757586 699.618199l-135.649274-62.600646v-21.998394l135.649274-66.135299v33.408689l-97.222803 43.047693v0.822197l97.222803 40.049714v33.406046zM775.350203 499.589056l-102.251159 245.249974H633.858308l101.838738-245.249974h39.653157zM945.899224 635.389022l-135.654561 62.595358v-33.260641l97.495106-39.920172v-0.68208l-97.495106-43.182522v-33.413977l135.654561 65.86564v21.998394z"
          p-id="3457" fill="#333333"></path>
</svg>