<?xml version="1.0" standalone="no"?><!DOCTYPE svg PUBLIC "-//W3C//DTD SVG 1.1//EN" "http://www.w3.org/Graphics/SVG/1.1/DTD/svg11.dtd">
<svg t="1646833380033" class="icon" viewBox="0 0 1024 1024" version="1.1" xmlns="http://www.w3.org/2000/svg" p-id="3631"
     width="16" height="16"><defs><style type="text/css"></style></defs><path d="M967.891937 410.798338h-54.2816a403.470211 403.470211 0 0 0-46.374351-109.877363l39.023949-39.113044a55.528941 55.528941 0 0 0 16.326801-39.513976c0-14.901268-5.835773-28.9784-16.326801-39.491702l-65.039915-64.973092c-21.093424-21.115698-57.956801-21.093424-78.961129-0.022274l-40.672221 40.427207a404.049333 404.049333 0 0 0-108.407282-44.013312V56.130337c0-30.804864-24.612707-56.130337-55.417571-56.130337h-91.946839c-30.804864 0-55.038914 25.325474-55.038914 56.130337v58.068171a405.16303 405.16303 0 0 0-108.652296 44.035586l-40.649946-40.427207c-21.07115-21.115698-57.956801-21.093424-79.094773-0.022274L117.383682 182.757706a56.130337 56.130337 0 0 0-16.371349 39.491701c0 14.901268 5.768951 28.933852 16.326801 39.469428l39.023949 39.20214a403.403389 403.403389 0 0 0-46.352077 109.877363H55.707132A55.506667 55.506667 0 0 0 0 466.305005v91.880017c0 30.827138 24.879995 55.038914 55.707132 55.038914h54.303874a405.408044 405.408044 0 0 0 46.307529 110.100102l-39.023949 39.268962c-10.557849 10.535575-16.349074 24.634981-16.349075 39.558524s5.813499 29.022948 16.349075 39.558523l65.039915 65.017641c10.557849 10.535575 24.56816 16.326801 39.469427 16.326801s28.933852-5.813499 39.491702-16.326801l40.828138-40.449481a406.655385 406.655385 0 0 0 108.652296 44.05786v58.001348c0 30.804864 24.23405 55.640311 55.038914 55.640311h91.946839a55.350749 55.350749 0 0 0 55.417571-55.640311v-58.023622a404.272073 404.272073 0 0 0 108.45183-44.035586l40.471755 40.360385a55.439845 55.439845 0 0 0 39.53625 16.371349c14.923542 0 28.9784-5.813499 39.513976-16.326801l65.039914-64.973093a55.640311 55.640311 0 0 0 16.349075-39.469428c0-14.923542-5.835773-28.933852-16.349075-39.491701l-38.979401-39.42488a407.056316 407.056316 0 0 0 46.329803-110.100102h54.303874c30.804864 0 56.130337-24.211776 56.130337-55.038914v-91.880017c0.022274-30.738042-25.280926-55.506667-56.085789-55.506667zM511.766124 687.151154c-97.515324 0-176.587823-78.337459-176.587824-174.895004 0-96.624366 79.072499-174.850456 176.587824-174.850455 97.537598 0 176.654645 78.226089 176.654645 174.850455-0.022274 96.579819-79.117047 174.895004-176.654645 174.895004z" p-id="3632"></path></svg>