<?xml version="1.0" standalone="no"?><!DOCTYPE svg PUBLIC "-//W3C//DTD SVG 1.1//EN"
        "http://www.w3.org/Graphics/SVG/1.1/DTD/svg11.dtd">
<svg t="1636943781000" class="icon" viewBox="0 0 1024 1024" version="1.1" xmlns="http://www.w3.org/2000/svg" p-id="6666"
     width="16" height="16">
    <defs>
        <style type="text/css"></style>
    </defs>
    <path d="M543.5952 384c13.2544 0 24 10.7456 24 24 0 13.2544-10.7456 24-24 24H424c-8.8368 0-16 7.1632-16 16v384c0 8.8368 7.1632 16 16 16h472c8.8368 0 16-7.1632 16-16V448c0-8.8368-7.1632-16-16-16H735.664c-13.2528 0-24-10.7456-24-24 0-13.2544 10.7472-24 24-24H896c35.3456 0 64 28.6544 64 64v384c0 35.3456-28.6544 64-64 64H424c-35.3456 0-64-28.6544-64-64V448c0-35.3456 28.6544-64 64-64zM600 128c35.3456 0 64 28.6544 64 64v384c0 35.3456-28.6544 64-64 64h-119.5952c-13.2544 0-24-10.7456-24-24 0-13.2544 10.7456-24 24-24H600c8.8368 0 16-7.1632 16-16V192c0-8.8368-7.1632-16-16-16H128c-8.8368 0-16 7.1632-16 16v384c0 8.8368 7.1632 16 16 16h160.336c13.2528 0 24 10.7456 24 24 0 13.2544-10.7472 24-24 24H128c-35.3456 0-64-28.6544-64-64V192c0-35.3456 28.6544-64 64-64z"
          fill="#888888" p-id="6667"></path>
</svg>